<?xml version="1.0" encoding="UTF-8" standalone="no"?>
<svg
   xmlns:dc="http://purl.org/dc/elements/1.1/"
   xmlns:cc="http://creativecommons.org/ns#"
   xmlns:rdf="http://www.w3.org/1999/02/22-rdf-syntax-ns#"
   xmlns:svg="http://www.w3.org/2000/svg"
   xmlns="http://www.w3.org/2000/svg"
   xmlns:sodipodi="http://sodipodi.sourceforge.net/DTD/sodipodi-0.dtd"
   xmlns:inkscape="http://www.inkscape.org/namespaces/inkscape"
   version="1.1"
   id="Layer_1"
   x="0px"
   y="0px"
   width="635px"
   height="336px"
   viewBox="0 0 635 336"
   enable-background="new 0 0 635 336"
   xml:space="preserve"
   sodipodi:docname="filip_sport.svg"
   inkscape:version="1.0.2-2 (e86c870879, 2021-01-15)"><metadata
   id="metadata71"><rdf:RDF><cc:Work
       rdf:about=""><dc:format>image/svg+xml</dc:format><dc:type
         rdf:resource="http://purl.org/dc/dcmitype/StillImage" /></cc:Work></rdf:RDF></metadata><defs
   id="defs69" /><sodipodi:namedview
   pagecolor="#ffffff"
   bordercolor="#666666"
   borderopacity="1"
   objecttolerance="10"
   gridtolerance="10"
   guidetolerance="10"
   inkscape:pageopacity="0"
   inkscape:pageshadow="2"
   inkscape:window-width="2303"
   inkscape:window-height="1321"
   id="namedview67"
   showgrid="false"
   inkscape:zoom="2.1905512"
   inkscape:cx="370.54077"
   inkscape:cy="110.06278"
   inkscape:window-x="-9"
   inkscape:window-y="-9"
   inkscape:window-maximized="1"
   inkscape:current-layer="Layer_1"
   inkscape:document-rotation="0" />
<g
   id="g4"
   style="fill:#0f1c4a;fill-opacity:1">
	<path
   fill="#FFFFFF"
   d="M 132.73395,178.55936 78.982348,200.06167 54.615289,139.14486 c -2.673599,-6.68441 -4.325504,-12.19355 -4.944864,-16.51988 -0.624368,-4.32133 -0.323035,-7.9031 0.896486,-10.74949 1.216183,-2.8372 3.284612,-5.11932 6.198609,-6.84468 2.911493,-1.71618 6.39894,-3.39145 10.464012,-5.01498 L 77.979018,95.714534 104.49547,85.10862 137.10369,72.064497 138.17797,38.381162 46.088654,75.218893 c -10.75032,4.299627 -18.849579,8.994076 -24.294438,14.08251 -5.447364,5.088435 -8.903092,10.834627 -10.357169,17.236077 -1.4582508,6.40227 -1.233712,13.37967 0.681129,20.92551 1.909832,7.55085 4.730342,15.98233 8.456518,25.29777 l 59.878425,149.69732 c 0.119365,-0.0426 0.242068,-0.0785 0.36811,-0.11436 L 114.64813,289.8213 c 0.0634,-0.0376 0.12939,-0.0735 0.19449,-0.10935 l -24.250193,-60.62466 82.059353,-32.82275 1.28964,-34.18667 z"
   id="path2"
   style="fill:#0f1c4a;fill-opacity:1;stroke-width:0.834717" />
</g>
<g
   id="g8"
   style="fill:#0f1c4a;fill-opacity:1"
   transform="matrix(0.83471701,0,0,0.83471701,7.4496037,23.69849)">
	<path
   fill="#FFFFFF"
   d="m 163.99,15.039 29.505,72.562 -98.081,39.882 -1.313,40.965 49.255,-20.029 64.245,-26.125 29.607,72.813 c 3.248,7.987 5.267,14.575 6.037,19.754 0.777,5.176 0.442,9.469 -0.999,12.885 -1.438,3.406 -3.9,6.158 -7.381,8.244 -3.477,2.074 -7.643,4.104 -12.5,6.078 l -12.851,5.227 -31.694,12.887 -38.975,15.85 -1.058,40.357 110.074,-44.76 c 12.85,-5.221 22.519,-10.902 29.01,-17.035 6.49,-6.133 10.591,-13.041 12.288,-20.719 1.704,-7.681 1.388,-16.037 -0.958,-25.064 -2.339,-9.029 -5.776,-19.113 -10.304,-30.25 L 206.316,2.521"
   id="path6"
   style="fill:#0f1c4a;fill-opacity:1" />
</g>
<g
   id="g30"
   style="fill:#0f1c4a;fill-opacity:1"
   transform="matrix(1.1727647,0,0,1,-113.90024,5.9345794)">
	<path
   fill="#FFFFFF"
   d="m 357.275,58.485 h -14.631 v 37.15 h 13.358 l -1.271,4.835 h -12.087 v 42.112 h -5.089 v -89.06 h 20.992 z"
   id="path10"
   style="fill:#0f1c4a;fill-opacity:1" />
	<path
   fill="#FFFFFF"
   d="m 370.89,142.583 h -5.089 V 54.795 l 5.089,-1.272 z"
   id="path12"
   style="fill:#0f1c4a;fill-opacity:1" />
	<path
   fill="#FFFFFF"
   d="M 399.771,142.583 H 380.687 V 54.795 l 5.089,-1.272 v 84.098 h 15.268 z"
   id="path14"
   style="fill:#0f1c4a;fill-opacity:1" />
	<path
   fill="#FFFFFF"
   d="m 412.366,142.583 h -5.089 V 54.795 l 5.089,-1.272 z"
   id="path16"
   style="fill:#0f1c4a;fill-opacity:1" />
	<path
   fill="#FFFFFF"
   d="m 427.253,105.178 v 37.405 h -5.089 V 54.795 c 4.325,-1.654 8.651,-2.544 13.104,-2.544 7.379,0 11.068,3.817 11.068,11.323 v 23.918 c 0,11.578 -4.198,17.812 -14.377,17.812 -1.398,0.001 -3.052,0.001 -4.706,-0.126 z m 0,-4.962 c 1.908,0.381 3.689,0.254 5.089,0.254 6.234,0 8.906,-4.835 8.906,-12.978 V 63.574 c 0,-4.326 -2.036,-6.489 -6.107,-6.489 -2.162,0 -4.962,0.382 -7.888,1.527 z"
   id="path18"
   style="fill:#0f1c4a;fill-opacity:1" />
	<path
   fill="#FFFFFF"
   d="m 498.247,127.315 c 0,10.688 -4.071,16.54 -13.74,16.54 -7.507,0 -11.196,-3.817 -11.196,-11.451 v -13.995 l 5.089,-1.272 v 15.267 c 0,4.453 2.036,6.616 6.107,6.616 6.106,0 8.651,-4.198 8.651,-11.705 v -15.267 c 0,-7.379 -1.908,-8.651 -7.38,-11.069 C 477.89,97.544 473.31,96.271 473.31,84.058 V 68.663 c 0,-10.814 3.944,-16.412 13.613,-16.412 7.507,0 11.323,3.817 11.323,11.323 v 15.395 l -5.089,1.272 V 63.574 c 0,-4.326 -2.036,-6.489 -6.107,-6.489 -6.106,0 -8.651,4.071 -8.651,11.578 v 15.395 c 0,7.634 1.908,8.652 7.379,11.069 7.889,3.817 12.469,4.453 12.469,16.921 z"
   id="path20"
   style="fill:#0f1c4a;fill-opacity:1" />
	<path
   fill="#FFFFFF"
   d="m 512.37,105.178 v 37.405 h -5.089 V 54.795 c 4.325,-1.654 8.651,-2.544 13.104,-2.544 7.379,0 11.068,3.817 11.068,11.323 v 23.918 c 0,11.578 -4.198,17.812 -14.377,17.812 -1.398,0.001 -3.052,0.001 -4.706,-0.126 z m 0,-4.962 c 1.908,0.381 3.689,0.254 5.089,0.254 6.234,0 8.906,-4.835 8.906,-12.978 V 63.574 c 0,-4.326 -2.036,-6.489 -6.107,-6.489 -2.162,0 -4.962,0.382 -7.888,1.527 z"
   id="path22"
   style="fill:#0f1c4a;fill-opacity:1" />
	<path
   fill="#FFFFFF"
   d="m 539.47,68.663 c 0,-10.814 4.198,-16.412 13.868,-16.412 7.761,0 11.577,3.817 11.577,11.323 v 63.741 c 0,10.688 -4.198,16.54 -13.995,16.54 -7.633,0 -11.45,-3.817 -11.45,-11.451 z m 5.089,63.741 c 0,4.453 2.163,6.616 6.361,6.616 6.234,0 8.906,-4.198 8.906,-11.705 V 63.574 c 0,-4.326 -2.163,-6.489 -6.361,-6.489 -6.234,0 -8.906,4.071 -8.906,11.578 z"
   id="path24"
   style="fill:#0f1c4a;fill-opacity:1" />
	<path
   fill="#FFFFFF"
   d="m 574.331,54.795 c 3.943,-1.527 8.396,-2.544 12.468,-2.544 8.271,0 12.342,3.817 12.342,11.323 v 19.084 c 0,9.669 -2.672,15.649 -8.906,17.303 l 10.687,41.349 -4.58,2.545 -11.959,-46.184 0.636,-2.036 h 1.399 c 5.472,0 7.634,-4.834 7.634,-12.977 V 63.574 c 0,-4.326 -2.417,-6.489 -7.379,-6.489 -2.163,0 -4.58,0.509 -7.252,1.527 v 83.97 h -5.089 V 54.795 Z"
   id="path26"
   style="fill:#0f1c4a;fill-opacity:1" />
	<path
   fill="#FFFFFF"
   d="m 604.866,53.523 h 27.99 l -1.272,4.962 h -10.179 v 84.098 h -5.089 V 58.485 h -11.45 z"
   id="path28"
   style="fill:#0f1c4a;fill-opacity:1" />
</g>
<g
   id="g52"
   style="fill:#0f1c4a;fill-opacity:1"
   transform="matrix(1.1727647,0,0,1,-113.90024,5.9345794)">
	<path
   fill="#FFFFFF"
   d="m 349.62,221.757 -9.372,-48.354 0.532,13.953 v 48.034 h -4.261 V 161.9 l 4.261,-1.065 7.774,34.295 3.195,20.662 3.195,-20.662 7.456,-33.124 4.579,-1.172 v 74.555 h -4.26 v -48.034 l 0.532,-13.953 -9.266,47.289 z"
   id="path32"
   style="fill:#0f1c4a;fill-opacity:1" />
	<path
   fill="#FFFFFF"
   d="m 399.255,235.39 h -4.367 l -2.023,-13.952 h -13.739 l -1.917,13.952 h -4.367 l 10.97,-74.022 4.261,-1.065 z m -19.491,-18 h 12.568 l -3.089,-21.62 -3.195,-25.029 -3.195,25.029 z"
   id="path34"
   style="fill:#0f1c4a;fill-opacity:1" />
	<path
   fill="#FFFFFF"
   d="m 423.221,161.9 4.26,-1.065 v 74.022 l -4.26,1.065 -14.484,-61.454 0.639,16.615 v 44.307 h -4.261 V 161.9 l 4.261,-1.065 14.484,60.922 -0.639,-16.615 z"
   id="path36"
   style="fill:#0f1c4a;fill-opacity:1" />
	<path
   fill="#FFFFFF"
   d="m 459.754,235.39 h -4.367 l -2.023,-13.952 h -13.739 l -1.917,13.952 h -4.367 l 10.971,-74.022 4.26,-1.065 z m -19.491,-18 h 12.567 l -3.088,-21.62 -3.195,-25.029 -3.195,25.029 z"
   id="path38"
   style="fill:#0f1c4a;fill-opacity:1" />
	<path
   fill="#FFFFFF"
   d="m 482.441,200.136 h -6.391 l 1.065,-4.047 h 9.586 v 26.52 c 0,8.947 -3.515,13.846 -11.716,13.846 -6.391,0 -9.586,-3.194 -9.586,-9.585 v -53.36 c 0,-9.053 3.515,-13.739 11.609,-13.739 6.497,0 9.692,3.195 9.692,9.479 v 12.888 l -4.261,2.13 V 169.25 c 0,-3.622 -1.811,-5.432 -5.325,-5.432 -5.219,0 -7.455,3.409 -7.455,9.692 v 53.36 c 0,3.728 1.811,5.538 5.325,5.538 5.219,0 7.455,-3.515 7.455,-9.799 v -22.473 z"
   id="path40"
   style="fill:#0f1c4a;fill-opacity:1" />
	<path
   fill="#FFFFFF"
   d="m 510.88,164.988 h -12.248 v 31.101 h 11.183 l -1.064,4.047 h -10.118 v 31.1 h 13.313 l -1.065,4.154 h -16.509 v -74.555 h 17.574 z"
   id="path42"
   style="fill:#0f1c4a;fill-opacity:1" />
	<path
   fill="#FFFFFF"
   d="m 531.011,221.757 -9.372,-48.354 0.532,13.953 V 235.39 H 517.91 V 161.9 l 4.261,-1.065 7.774,34.295 3.195,20.662 3.195,-20.662 7.456,-33.124 4.579,-1.172 v 74.555 h -4.26 v -48.034 l 0.532,-13.953 -9.266,47.289 z"
   id="path44"
   style="fill:#0f1c4a;fill-opacity:1" />
	<path
   fill="#FFFFFF"
   d="m 572.977,164.988 h -12.248 v 31.101 h 11.183 l -1.064,4.047 H 560.73 v 31.1 h 13.313 l -1.065,4.154 h -16.509 v -74.555 h 17.574 z"
   id="path46"
   style="fill:#0f1c4a;fill-opacity:1" />
	<path
   fill="#FFFFFF"
   d="m 598.113,161.9 4.26,-1.065 v 74.022 l -4.26,1.065 -14.484,-61.454 0.639,16.615 v 44.307 h -4.261 V 161.9 l 4.261,-1.065 14.484,60.922 -0.639,-16.615 z"
   id="path48"
   style="fill:#0f1c4a;fill-opacity:1" />
	<path
   fill="#FFFFFF"
   d="m 607.487,160.834 h 23.431 l -1.064,4.154 h -8.521 v 70.401 h -4.261 v -70.401 h -9.585 z"
   id="path50"
   style="fill:#0f1c4a;fill-opacity:1" />
</g>
<g
   id="g54"
   style="fill:#0f1c4a;fill-opacity:1">
</g>
<g
   id="g56"
   style="fill:#0f1c4a;fill-opacity:1">
</g>
<g
   id="g58"
   style="fill:#0f1c4a;fill-opacity:1">
</g>
<g
   id="g60"
   style="fill:#0f1c4a;fill-opacity:1">
</g>
<g
   id="g62"
   style="fill:#0f1c4a;fill-opacity:1">
</g>
<g
   id="g64"
   style="fill:#0f1c4a;fill-opacity:1">
</g>
</svg>
