<?xml version="1.0" encoding="UTF-8" standalone="no"?>
<svg
   xmlns:dc="http://purl.org/dc/elements/1.1/"
   xmlns:cc="http://creativecommons.org/ns#"
   xmlns:rdf="http://www.w3.org/1999/02/22-rdf-syntax-ns#"
   xmlns:svg="http://www.w3.org/2000/svg"
   xmlns="http://www.w3.org/2000/svg"
   xmlns:sodipodi="http://sodipodi.sourceforge.net/DTD/sodipodi-0.dtd"
   xmlns:inkscape="http://www.inkscape.org/namespaces/inkscape"
   version="1.1"
   id="Layer_1"
   x="0px"
   y="0px"
   width="635px"
   height="336px"
   viewBox="0 0 635 336"
   enable-background="new 0 0 635 336"
   xml:space="preserve"
   sodipodi:docname="filip_sport.svg"
   inkscape:version="1.0.2-2 (e86c870879, 2021-01-15)"><metadata
   id="metadata71"><rdf:RDF><cc:Work
       rdf:about=""><dc:format>image/svg+xml</dc:format><dc:type
         rdf:resource="http://purl.org/dc/dcmitype/StillImage" /></cc:Work></rdf:RDF></metadata><defs
   id="defs69" /><sodipodi:namedview
   pagecolor="#ffffff"
   bordercolor="#666666"
   borderopacity="1"
   objecttolerance="10"
   gridtolerance="10"
   guidetolerance="10"
   inkscape:pageopacity="0"
   inkscape:pageshadow="2"
   inkscape:window-width="2316"
   inkscape:window-height="1321"
   id="namedview67"
   showgrid="false"
   inkscape:zoom="2.1905512"
   inkscape:cx="266.32056"
   inkscape:cy="100.41527"
   inkscape:window-x="-9"
   inkscape:window-y="-9"
   inkscape:window-maximized="1"
   inkscape:current-layer="Layer_1" />
<g
   id="g4"
   style="fill:#0f1c4a;fill-opacity:1">
	<path
   fill="#FFFFFF"
   d="M150.092,185.525l-64.395,25.76l-29.192-72.979c-3.203-8.008-5.182-14.608-5.924-19.791   c-0.748-5.177-0.387-9.468,1.074-12.878c1.457-3.399,3.935-6.133,7.426-8.2c3.488-2.056,7.666-4.063,12.536-6.008l12.878-5.153   l31.767-12.706l39.065-15.627l1.287-40.353L46.29,61.722c-12.879,5.151-22.582,10.775-29.105,16.871   c-6.526,6.096-10.666,12.98-12.408,20.649c-1.747,7.67-1.478,16.029,0.816,25.069c2.288,9.046,5.667,19.147,10.131,30.307   l71.735,179.339c0.143-0.051,0.29-0.094,0.441-0.137l40.525-15.002c0.076-0.045,0.155-0.088,0.233-0.131l-29.052-72.629   l98.308-39.322l1.545-40.956L150.092,185.525z"
   id="path2"
   style="fill:#0f1c4a;fill-opacity:1" />
</g>
<g
   id="g8"
   style="fill:#0f1c4a;fill-opacity:1">
	<path
   fill="#FFFFFF"
   d="M163.99,15.039l29.505,72.562l-98.081,39.882l-1.313,40.965l49.255-20.029l64.245-26.125l29.607,72.813   c3.248,7.987,5.267,14.575,6.037,19.754c0.777,5.176,0.442,9.469-0.999,12.885c-1.438,3.406-3.9,6.158-7.381,8.244   c-3.477,2.074-7.643,4.104-12.5,6.078l-12.851,5.227l-31.694,12.887l-38.975,15.85l-1.058,40.357l110.074-44.76   c12.85-5.221,22.519-10.902,29.01-17.035c6.49-6.133,10.591-13.041,12.288-20.719c1.704-7.681,1.388-16.037-0.958-25.064   c-2.339-9.029-5.776-19.113-10.304-30.25L206.316,2.521"
   id="path6"
   style="fill:#0f1c4a;fill-opacity:1" />
</g>
<g
   id="g30"
   style="fill:#0f1c4a;fill-opacity:1">
	<path
   fill="#FFFFFF"
   d="M357.275,58.485h-14.631v37.15h13.358l-1.271,4.835h-12.087v42.112h-5.089v-89.06h20.992L357.275,58.485z"
   id="path10"
   style="fill:#0f1c4a;fill-opacity:1" />
	<path
   fill="#FFFFFF"
   d="M370.89,142.583h-5.089V54.795l5.089-1.272V142.583z"
   id="path12"
   style="fill:#0f1c4a;fill-opacity:1" />
	<path
   fill="#FFFFFF"
   d="M399.771,142.583h-19.084V54.795l5.089-1.272v84.098h15.268L399.771,142.583z"
   id="path14"
   style="fill:#0f1c4a;fill-opacity:1" />
	<path
   fill="#FFFFFF"
   d="M412.366,142.583h-5.089V54.795l5.089-1.272V142.583z"
   id="path16"
   style="fill:#0f1c4a;fill-opacity:1" />
	<path
   fill="#FFFFFF"
   d="M427.253,105.178v37.405h-5.089V54.795c4.325-1.654,8.651-2.544,13.104-2.544   c7.379,0,11.068,3.817,11.068,11.323v23.918c0,11.578-4.198,17.812-14.377,17.812C430.561,105.305,428.907,105.305,427.253,105.178   z M427.253,100.216c1.908,0.381,3.689,0.254,5.089,0.254c6.234,0,8.906-4.835,8.906-12.978V63.574c0-4.326-2.036-6.489-6.107-6.489   c-2.162,0-4.962,0.382-7.888,1.527V100.216z"
   id="path18"
   style="fill:#0f1c4a;fill-opacity:1" />
	<path
   fill="#FFFFFF"
   d="M498.247,127.315c0,10.688-4.071,16.54-13.74,16.54c-7.507,0-11.196-3.817-11.196-11.451v-13.995   l5.089-1.272v15.267c0,4.453,2.036,6.616,6.107,6.616c6.106,0,8.651-4.198,8.651-11.705v-15.267c0-7.379-1.908-8.651-7.38-11.069   c-7.888-3.435-12.468-4.708-12.468-16.921V68.663c0-10.814,3.944-16.412,13.613-16.412c7.507,0,11.323,3.817,11.323,11.323v15.395   l-5.089,1.272V63.574c0-4.326-2.036-6.489-6.107-6.489c-6.106,0-8.651,4.071-8.651,11.578v15.395c0,7.634,1.908,8.652,7.379,11.069   c7.889,3.817,12.469,4.453,12.469,16.921V127.315z"
   id="path20"
   style="fill:#0f1c4a;fill-opacity:1" />
	<path
   fill="#FFFFFF"
   d="M512.37,105.178v37.405h-5.089V54.795c4.325-1.654,8.651-2.544,13.104-2.544   c7.379,0,11.068,3.817,11.068,11.323v23.918c0,11.578-4.198,17.812-14.377,17.812C515.678,105.305,514.024,105.305,512.37,105.178z    M512.37,100.216c1.908,0.381,3.689,0.254,5.089,0.254c6.234,0,8.906-4.835,8.906-12.978V63.574c0-4.326-2.036-6.489-6.107-6.489   c-2.162,0-4.962,0.382-7.888,1.527V100.216z"
   id="path22"
   style="fill:#0f1c4a;fill-opacity:1" />
	<path
   fill="#FFFFFF"
   d="M539.47,68.663c0-10.814,4.198-16.412,13.868-16.412c7.761,0,11.577,3.817,11.577,11.323v63.741   c0,10.688-4.198,16.54-13.995,16.54c-7.633,0-11.45-3.817-11.45-11.451V68.663z M544.559,132.404c0,4.453,2.163,6.616,6.361,6.616   c6.234,0,8.906-4.198,8.906-11.705V63.574c0-4.326-2.163-6.489-6.361-6.489c-6.234,0-8.906,4.071-8.906,11.578V132.404z"
   id="path24"
   style="fill:#0f1c4a;fill-opacity:1" />
	<path
   fill="#FFFFFF"
   d="M574.331,54.795c3.943-1.527,8.396-2.544,12.468-2.544c8.271,0,12.342,3.817,12.342,11.323v19.084   c0,9.669-2.672,15.649-8.906,17.303l10.687,41.349l-4.58,2.545l-11.959-46.184l0.636-2.036h1.399c5.472,0,7.634-4.834,7.634-12.977   V63.574c0-4.326-2.417-6.489-7.379-6.489c-2.163,0-4.58,0.509-7.252,1.527v83.97h-5.089V54.795z"
   id="path26"
   style="fill:#0f1c4a;fill-opacity:1" />
	<path
   fill="#FFFFFF"
   d="M604.866,53.523h27.99l-1.272,4.962h-10.179v84.098h-5.089V58.485h-11.45V53.523z"
   id="path28"
   style="fill:#0f1c4a;fill-opacity:1" />
</g>
<g
   id="g52"
   style="fill:#0f1c4a;fill-opacity:1">
	<path
   fill="#FFFFFF"
   d="M349.62,221.757l-9.372-48.354l0.532,13.953v48.034h-4.261V161.9l4.261-1.065l7.774,34.295l3.195,20.662   l3.195-20.662l7.456-33.124l4.579-1.172v74.555h-4.26v-48.034l0.532-13.953l-9.266,47.289L349.62,221.757z"
   id="path32"
   style="fill:#0f1c4a;fill-opacity:1" />
	<path
   fill="#FFFFFF"
   d="M399.255,235.39h-4.367l-2.023-13.952h-13.739l-1.917,13.952h-4.367l10.97-74.022l4.261-1.065   L399.255,235.39z M379.764,217.39h12.568l-3.089-21.62l-3.195-25.029l-3.195,25.029L379.764,217.39z"
   id="path34"
   style="fill:#0f1c4a;fill-opacity:1" />
	<path
   fill="#FFFFFF"
   d="M423.221,161.9l4.26-1.065v74.022l-4.26,1.065l-14.484-61.454l0.639,16.615v44.307h-4.261V161.9   l4.261-1.065l14.484,60.922l-0.639-16.615V161.9z"
   id="path36"
   style="fill:#0f1c4a;fill-opacity:1" />
	<path
   fill="#FFFFFF"
   d="M459.754,235.39h-4.367l-2.023-13.952h-13.739l-1.917,13.952h-4.367l10.971-74.022l4.26-1.065   L459.754,235.39z M440.263,217.39h12.567l-3.088-21.62l-3.195-25.029l-3.195,25.029L440.263,217.39z"
   id="path38"
   style="fill:#0f1c4a;fill-opacity:1" />
	<path
   fill="#FFFFFF"
   d="M482.441,200.136h-6.391l1.065-4.047h9.586v26.52c0,8.947-3.515,13.846-11.716,13.846   c-6.391,0-9.586-3.194-9.586-9.585v-53.36c0-9.053,3.515-13.739,11.609-13.739c6.497,0,9.692,3.195,9.692,9.479v12.888l-4.261,2.13   v-15.018c0-3.622-1.811-5.432-5.325-5.432c-5.219,0-7.455,3.409-7.455,9.692v53.36c0,3.728,1.811,5.538,5.325,5.538   c5.219,0,7.455-3.515,7.455-9.799V200.136z"
   id="path40"
   style="fill:#0f1c4a;fill-opacity:1" />
	<path
   fill="#FFFFFF"
   d="M510.88,164.988h-12.248v31.101h11.183l-1.064,4.047h-10.118v31.1h13.313l-1.065,4.154h-16.509v-74.555   h17.574L510.88,164.988z"
   id="path42"
   style="fill:#0f1c4a;fill-opacity:1" />
	<path
   fill="#FFFFFF"
   d="M531.011,221.757l-9.372-48.354l0.532,13.953v48.034h-4.261V161.9l4.261-1.065l7.774,34.295l3.195,20.662   l3.195-20.662l7.456-33.124l4.579-1.172v74.555h-4.26v-48.034l0.532-13.953l-9.266,47.289L531.011,221.757z"
   id="path44"
   style="fill:#0f1c4a;fill-opacity:1" />
	<path
   fill="#FFFFFF"
   d="M572.977,164.988h-12.248v31.101h11.183l-1.064,4.047h-10.118v31.1h13.313l-1.065,4.154h-16.509v-74.555   h17.574L572.977,164.988z"
   id="path46"
   style="fill:#0f1c4a;fill-opacity:1" />
	<path
   fill="#FFFFFF"
   d="M598.113,161.9l4.26-1.065v74.022l-4.26,1.065l-14.484-61.454l0.639,16.615v44.307h-4.261V161.9   l4.261-1.065l14.484,60.922l-0.639-16.615V161.9z"
   id="path48"
   style="fill:#0f1c4a;fill-opacity:1" />
	<path
   fill="#FFFFFF"
   d="M607.487,160.834h23.431l-1.064,4.154h-8.521v70.401h-4.261v-70.401h-9.585V160.834z"
   id="path50"
   style="fill:#0f1c4a;fill-opacity:1" />
</g>
<g
   id="g54"
   style="fill:#0f1c4a;fill-opacity:1">
</g>
<g
   id="g56"
   style="fill:#0f1c4a;fill-opacity:1">
</g>
<g
   id="g58"
   style="fill:#0f1c4a;fill-opacity:1">
</g>
<g
   id="g60"
   style="fill:#0f1c4a;fill-opacity:1">
</g>
<g
   id="g62"
   style="fill:#0f1c4a;fill-opacity:1">
</g>
<g
   id="g64"
   style="fill:#0f1c4a;fill-opacity:1">
</g>
</svg>
